Coordinates
version=1
nRows=65
nColumns=12
inDegrees=yes

Units are S.I. units (second, meters, Newtons, ...)
Angles are in degrees

endheader
time	SC_y	SC_z	SC_x	AC_y	AC_z	AC_x	GH_y	GH_z	GH_yy	EL_x	PS_y
       0.0              -59.04          6.396           52.2          41.92         -19.79         -9.907          174.5          62.65          95.34          79.89          77.69
   0.01401              -59.04          6.396          52.19          41.92         -19.79         -9.903          174.5          62.65          95.34          79.89          77.68
   0.02801              -59.04          6.395          52.19          41.92         -19.78         -9.899          174.5          62.65          95.33          79.89          77.68
   0.04202              -59.03          6.395          52.19          41.92         -19.78         -9.894          174.4          62.65          95.32          79.89          77.67
   0.05603              -59.03          6.395          52.18          41.92         -19.78          -9.89          174.4          62.65          95.31          79.89          77.66
   0.07004              -59.02          6.395          52.18          41.92         -19.77         -9.885          174.4          62.65          95.31          79.89          77.65
   0.08404              -59.01          6.394          52.17          41.92         -19.77         -9.879          174.3          62.65           95.3          79.89          77.64
   0.09805              -59.01          6.394          52.16          41.92         -19.77         -9.873          174.3          62.65          95.29           79.9          77.63
    0.1121               -59.0          6.394          52.16          41.91         -19.76         -9.867          174.2          62.65          95.28           79.9          77.62
    0.1261              -58.99          6.393          52.15          41.91         -19.76          -9.86          174.1          62.65          95.26           79.9          77.61
    0.1401              -58.99          6.393          52.14          41.91         -19.75         -9.853          174.1          62.65          95.25           79.9          77.59
    0.1541              -58.98          6.393          52.14          41.91         -19.75         -9.845          174.0          62.65          95.24           79.9          77.58
    0.1681              -58.97          6.392          52.13          41.91         -19.74         -9.837          174.0          62.65          95.22           79.9          77.56
    0.1821              -58.96          6.392          52.12          41.91         -19.73         -9.828          173.9          62.64          95.21          79.91          77.55
    0.1961              -58.95          6.391          52.11          41.91         -19.73         -9.818          173.8          62.64          95.19          79.91          77.53
    0.2101              -58.94          6.391           52.1          41.91         -19.72         -9.807          173.7          62.64          95.17          79.91          77.51
    0.2241              -58.92           6.39          52.09           41.9         -19.71         -9.796          173.6          62.64          95.15          79.91          77.49
    0.2381              -58.91           6.39          52.07           41.9          -19.7         -9.783          173.5          62.64          95.13          79.92          77.47
    0.2521               -58.9          6.389          52.06           41.9         -19.69          -9.77          173.4          62.64          95.11          79.92          77.44
    0.2661              -58.88          6.388          52.05           41.9         -19.68         -9.755          173.3          62.64          95.08          79.92          77.42
    0.2801              -58.86          6.387          52.03           41.9         -19.67         -9.738          173.1          62.64          95.05          79.93          77.39
    0.2942              -58.84          6.386          52.01          41.89         -19.66          -9.72          173.0          62.64          95.02          79.93          77.36
    0.3082              -58.82          6.385          51.99          41.89         -19.64           -9.7          172.8          62.63          94.99          79.94          77.32
    0.3222               -58.8          6.384          51.97          41.89         -19.63         -9.678          172.6          62.63          94.95          79.94          77.28
    0.3362              -58.77          6.383          51.94          41.89         -19.61         -9.653          172.4          62.63           94.9          79.95          77.24
    0.3502              -58.74          6.382          51.92          41.88         -19.59         -9.626          172.2          62.63          94.86          79.96          77.19
    0.3642              -58.71           6.38          51.89          41.88         -19.57         -9.595          172.0          62.63           94.8          79.96          77.13
    0.3782              -58.67          6.378          51.85          41.87         -19.54          -9.56          171.7          62.62          94.74          79.97          77.07
    0.3922              -58.63          6.376          51.81          41.87         -19.51         -9.521          171.3          62.62          94.67          79.98           77.0
    0.4062              -58.58          6.374          51.77          41.86         -19.48         -9.476          171.0          62.62           94.6          79.99          76.92
    0.4202              -58.52          6.372          51.72          41.85         -19.44         -9.425          170.6          62.61          94.51          80.01          76.83
    0.4342              -58.46          6.369          51.66          41.85          -19.4         -9.367          170.1          62.61          94.41          80.02          76.73
    0.4482              -58.39          6.365          51.59          41.84         -19.35           -9.3          169.5           62.6          94.29          80.04          76.61
    0.4622               -58.3          6.361          51.51          41.83          -19.3         -9.222          168.9           62.6          94.15          80.06          76.47
    0.4763               -58.2          6.357          51.42          41.81         -19.23          -9.13          168.1          62.59           94.0          80.08           76.3
    0.4903              -58.08          6.351          51.31           41.8         -19.15         -9.022          167.2          62.58          93.81          80.11          76.11
    0.5043              -57.94          6.345          51.18          41.78         -19.06         -8.894          166.2          62.57          93.59          80.14          75.88
    0.5183              -57.78          6.337          51.03          41.76         -18.95          -8.74          164.9          62.56          93.32          80.18          75.61
    0.5323              -57.58          6.328          50.84          41.74         -18.82         -8.554          163.4          62.54           93.0          80.22          75.27
    0.5463              -57.33          6.317          50.61          41.71         -18.65         -8.327          161.5          62.52           92.6          80.28          74.87
    0.5603              -57.02          6.303          50.33          41.67         -18.45         -8.046          159.2           62.5          92.11          80.35          74.37
    0.5743              -56.64          6.285          49.98          41.62          -18.2         -7.697          156.3          62.47          91.51          80.44          73.74
    0.5883              -56.17          6.263          49.54          41.56         -17.88         -7.256          152.6          62.44          90.74          80.55          72.96
    0.6023              -55.56          6.235          48.98          41.49         -17.48         -6.696          148.0          62.39          89.77          80.69          71.96
    0.6163              -54.78          6.199          48.26          41.39         -16.97         -5.979          142.1          62.34          88.53          80.87          70.68
    0.6303              -53.78          6.153          47.34          41.27         -16.31          -5.06          134.5          62.26          86.93          81.09          69.03
    0.6443              -52.51          6.094          46.16          41.11         -15.46         -3.885          124.8          62.17          84.89          81.39          66.93
    0.6583               -50.9           6.02          44.68          40.91          -14.4         -2.407          112.6          62.05          82.32          81.76           64.3
    0.6724              -48.95           5.93          42.87          40.66          -13.1         -0.607          97.73           61.9           79.2           82.2          61.08
    0.6864              -46.68          5.825          40.78          40.38          -11.6           1.48          80.49          61.74          75.58          82.72          57.35
    0.7004              -44.23          5.712          38.52          40.08         -9.979          3.739          61.83          61.56          71.65          83.29          53.32
    0.7144              -41.77          5.598          36.25          39.77         -8.355          5.999          43.17          61.37          67.73          83.85          49.28
    0.7284              -39.51          5.494          34.16          39.49         -6.855          8.086          25.93          61.21          64.11          84.37          45.56
    0.7424              -37.55          5.404          32.35          39.25          -5.56          9.886          11.06          61.06          60.98          84.82          42.34
    0.7564              -35.95          5.329          30.87          39.05         -4.498          11.36         -1.139          60.94          58.42          85.19           39.7
    0.7704              -34.67          5.271          29.69          38.89         -3.653          12.54         -10.84          60.85          56.38          85.48           37.6
    0.7844              -33.67          5.224          28.77          38.76         -2.992          13.46         -18.44          60.78          54.78          85.71          35.96
    0.7984              -32.89          5.189          28.05          38.67         -2.477          14.17         -24.36          60.72          53.54          85.89          34.68
    0.8124              -32.29           5.16          27.49          38.59         -2.074          14.73         -28.99          60.67          52.56          86.03          33.68
    0.8264              -31.81          5.138          27.05          38.53         -1.758          15.18         -32.62          60.64           51.8          86.14          32.89
    0.8404              -31.43          5.121           26.7          38.48         -1.506          15.53         -35.51          60.61          51.19          86.22          32.27
    0.8545              -31.12          5.107          26.42          38.45         -1.305          15.81         -37.83          60.59          50.71          86.29          31.77
    0.8685              -30.88          5.095          26.19          38.42         -1.141          16.03          -39.7          60.57          50.31          86.35          31.36
    0.8825              -30.67          5.086           26.0          38.39         -1.007          16.22         -41.24          60.55          49.99           86.4          31.03
    0.8965              -30.51          5.078          25.85          38.37        -0.8969          16.37         -42.51          60.54          49.72          86.44          30.76
